<svg width="330" height="113" viewBox="0 0 330 113" fill="none" xmlns="http://www.w3.org/2000/svg">
<path d="M255.722 51.48C260.205 52.1907 263.594 53.776 265.89 56.236C268.186 58.6413 269.334 61.8667 269.334 65.912C269.334 70.832 267.585 74.5767 264.086 77.146C260.587 79.7153 255.367 81 248.424 81H223.496V23.6H246.784C252.852 23.6 257.608 24.8573 261.052 27.372C264.496 29.8867 266.218 33.4947 266.218 38.196C266.218 41.64 265.289 44.4827 263.43 46.724C261.571 48.9653 259.002 50.5507 255.722 51.48ZM226.284 26.06V50.66H246.866C252.169 50.66 256.269 49.6213 259.166 47.544C262.063 45.412 263.512 42.3507 263.512 38.36C263.512 34.3693 262.063 31.3353 259.166 29.258C256.269 27.126 252.169 26.06 246.866 26.06H226.284ZM248.588 78.54C254.547 78.54 259.029 77.5013 262.036 75.424C265.043 73.3467 266.546 70.1487 266.546 65.83C266.546 61.4567 265.043 58.2313 262.036 56.154C259.029 54.0767 254.547 53.038 248.588 53.038H226.284V78.54H248.588ZM307.382 78.458V81H268.596V23.6H306.234V26.142H271.384V50.578H302.544V53.12H271.384V78.458H307.382Z" fill="#D5CBBE"/>
<rect x="5" y="5" width="320" height="93" stroke="#E0D6C9" stroke-width="10"/>
<path d="M102.69 23.6L83.092 81H80.304L61.608 27.454L42.994 81H40.124L20.526 23.6H23.478L41.6 76.982L60.296 23.6H63.002L81.616 77.064L99.902 23.6H102.69ZM129.899 78.458V81H91.1133V23.6H128.751V26.142H93.9013V50.578H125.061V53.12H93.9013V78.458H129.899ZM112.917 23.6H135.057C141.016 23.6 146.291 24.83 150.883 27.29C155.53 29.75 159.11 33.1667 161.625 37.54C164.194 41.8587 165.479 46.7787 165.479 52.3C165.479 57.8213 164.194 62.7687 161.625 67.142C159.11 71.4607 155.53 74.85 150.883 77.31C146.291 79.77 141.016 81 135.057 81H112.917V23.6ZM134.893 78.458C140.469 78.458 145.334 77.3373 149.489 75.096C153.698 72.8547 156.951 69.766 159.247 65.83C161.543 61.8393 162.691 57.3293 162.691 52.3C162.691 47.2707 161.543 42.788 159.247 38.852C156.951 34.8613 153.698 31.7453 149.489 29.504C145.334 27.2627 140.469 26.142 134.893 26.142H115.705V78.458H134.893Z" fill="#D5CBBE"/>
<path d="M195.777 81.3223C194.833 81.2467 193.833 80.9635 192.775 80.4727C191.756 79.9818 190.623 79.4531 189.377 78.8867C188.131 78.3203 186.771 77.8105 185.299 77.3574C183.864 76.9043 182.24 76.6777 180.428 76.6777C179.106 76.6777 177.69 76.8665 176.18 77.2441C174.707 77.6217 173.272 78.056 171.875 78.5469C170.516 79 169.232 79.4154 168.023 79.793C166.853 80.1706 165.909 80.3594 165.191 80.3594C164.738 80.3594 164.342 80.2461 164.002 80.0195C163.662 79.8307 163.492 79.5098 163.492 79.0566C163.492 78.6413 163.605 78.2448 163.832 77.8672C164.096 77.4518 164.304 77.1497 164.455 76.9609C166.003 74.9219 167.872 72.9017 170.063 70.9004C172.253 68.8991 174.613 66.9355 177.143 65.0098C179.71 63.084 182.354 61.2337 185.072 59.459C187.791 57.6465 190.434 55.9284 193.002 54.3047C195.57 52.681 197.986 51.1517 200.252 49.7168C202.518 48.2441 204.462 46.9036 206.086 45.6953C208.503 43.8828 210.372 41.8815 211.693 39.6914C213.015 37.4635 213.676 35.2923 213.676 33.1777C213.676 31.8939 213.43 30.7422 212.939 29.7227C212.449 28.6654 211.769 27.778 210.9 27.0605C210.032 26.3053 208.975 25.7389 207.729 25.3613C206.482 24.9837 205.123 24.7949 203.65 24.7949C201.989 24.7949 200.309 25.0215 198.609 25.4746C196.948 25.9277 195.343 26.5885 193.795 27.457C192.247 28.2878 190.812 29.3451 189.49 30.6289C188.169 31.9128 187.074 33.3665 186.205 34.9902C185.752 35.8587 185.525 36.7083 185.525 37.5391C185.525 38.4076 185.865 39.2005 186.545 39.918C187.225 40.5977 188.339 40.9375 189.887 40.9375C192.152 40.9375 194.116 39.5781 195.777 36.8594C196.457 35.7266 196.929 34.8203 197.193 34.1406C197.458 33.4232 197.628 32.8756 197.703 32.498C197.816 32.1204 197.892 31.875 197.93 31.7617C197.967 31.6484 198.118 31.5918 198.383 31.5918C198.76 31.5918 198.949 31.7617 198.949 32.1016V32.2715C198.949 32.3092 198.893 32.4792 198.779 32.7812C198.704 33.0833 198.572 33.4798 198.383 33.9707C198.232 34.4616 198.005 35.028 197.703 35.6699C197.439 36.2741 197.118 36.8783 196.74 37.4824C195.796 38.9928 194.758 40.1445 193.625 40.9375C192.492 41.7305 191.265 42.127 189.943 42.127C188.962 42.127 188.112 41.9948 187.395 41.7305C186.715 41.4284 186.148 41.0508 185.695 40.5977C185.242 40.1445 184.902 39.6536 184.676 39.125C184.487 38.5586 184.393 37.9922 184.393 37.4258C184.393 36.4062 184.657 35.4056 185.186 34.4238C186.13 32.6868 187.262 31.1575 188.584 29.8359C189.943 28.4766 191.397 27.3437 192.945 26.4375C194.493 25.5312 196.136 24.8516 197.873 24.3984C199.648 23.9075 201.441 23.6621 203.254 23.6621C204.727 23.6621 206.143 23.8509 207.502 24.2285C208.899 24.5684 210.126 25.1159 211.184 25.8711C212.279 26.6263 213.147 27.6081 213.789 28.8164C214.469 30.0247 214.809 31.4974 214.809 33.2344C214.809 34.5937 214.563 35.9154 214.072 37.1992C213.619 38.4831 213.015 39.7103 212.26 40.8809C211.505 42.0137 210.636 43.071 209.654 44.0527C208.71 45.0345 207.747 45.8841 206.766 46.6016C205.18 47.7721 203.254 49.0749 200.988 50.5098C198.76 51.9069 196.344 53.4173 193.738 55.041C191.171 56.6647 188.527 58.3828 185.809 60.1953C183.09 61.9701 180.465 63.8203 177.936 65.7461C175.406 67.6341 173.046 69.5788 170.855 71.5801C168.665 73.5814 166.834 75.6016 165.361 77.6406C165.173 77.9049 164.984 78.1504 164.795 78.377C164.606 78.6035 164.512 78.7923 164.512 78.9434C164.474 79.0189 164.474 79.0755 164.512 79.1133C164.549 79.2266 164.757 79.2832 165.135 79.2832C165.663 79.2832 166.494 79.0944 167.627 78.7168C168.76 78.3014 170.044 77.8672 171.479 77.4141C172.951 76.9609 174.48 76.5456 176.066 76.168C177.652 75.7526 179.144 75.5449 180.541 75.5449C182.429 75.5449 184.128 75.7904 185.639 76.2812C187.187 76.7721 188.603 77.3008 189.887 77.8672C191.171 78.4336 192.322 78.9622 193.342 79.4531C194.361 79.944 195.305 80.1895 196.174 80.1895C196.778 80.1895 197.344 80.0384 197.873 79.7363C198.439 79.472 198.987 78.9811 199.516 78.2637C199.629 78.1504 199.78 78.0937 199.969 78.0937C200.346 78.0937 200.535 78.2637 200.535 78.6035C200.535 78.7168 200.497 78.849 200.422 79C199.78 79.793 199.1 80.3783 198.383 80.7559C197.665 81.1335 196.797 81.3223 195.777 81.3223Z" fill="#D5CBBE"/>
</svg>
