<svg width="259" height="271" viewBox="0 0 259 271" fill="none" xmlns="http://www.w3.org/2000/svg">
<path d="M160.478 184.52C166.929 185.543 171.806 187.824 175.11 191.364C178.414 194.825 180.066 199.467 180.066 205.288C180.066 212.368 177.549 217.757 172.514 221.454C167.479 225.151 159.967 227 149.976 227H114.104V144.4H147.616C156.348 144.4 163.192 146.209 168.148 149.828C173.104 153.447 175.582 158.639 175.582 165.404C175.582 170.36 174.245 174.451 171.57 177.676C168.895 180.901 165.198 183.183 160.478 184.52ZM118.116 147.94V183.34H147.734C155.365 183.34 161.265 181.845 165.434 178.856C169.603 175.788 171.688 171.383 171.688 165.64C171.688 159.897 169.603 155.531 165.434 152.542C161.265 149.474 155.365 147.94 147.734 147.94H118.116ZM150.212 223.46C158.787 223.46 165.237 221.965 169.564 218.976C173.891 215.987 176.054 211.385 176.054 205.17C176.054 198.877 173.891 194.235 169.564 191.246C165.237 188.257 158.787 186.762 150.212 186.762H118.116V223.46H150.212ZM234.818 223.342V227H179.004V144.4H233.166V148.058H183.016V183.222H227.856V186.88H183.016V223.342H234.818Z" fill="#D5CBBE"/>
<path d="M70.5677 226.31C69.2222 226.202 67.796 225.799 66.2891 225.099C64.8359 224.399 63.2214 223.646 61.4453 222.839C59.6693 222.031 57.7318 221.305 55.6328 220.659C53.5877 220.013 51.2734 219.69 48.6901 219.69C46.8064 219.69 44.7882 219.959 42.6354 220.497C40.5365 221.036 38.4913 221.655 36.5 222.354C34.5625 223 32.7326 223.592 31.0104 224.13C29.342 224.668 27.9965 224.938 26.974 224.938C26.3281 224.938 25.763 224.776 25.2786 224.453C24.7943 224.184 24.5521 223.727 24.5521 223.081C24.5521 222.489 24.7135 221.924 25.0365 221.385C25.4132 220.793 25.7092 220.363 25.9245 220.094C28.1311 217.188 30.7951 214.308 33.9167 211.456C37.0382 208.603 40.4019 205.805 44.0078 203.06C47.6675 200.315 51.4349 197.678 55.3099 195.148C59.1849 192.565 62.9523 190.116 66.612 187.802C70.2717 185.488 73.7161 183.308 76.9453 181.263C80.1745 179.164 82.9462 177.253 85.2604 175.531C88.7049 172.948 91.3689 170.095 93.2526 166.974C95.1363 163.799 96.0781 160.704 96.0781 157.69C96.0781 155.86 95.7283 154.219 95.0287 152.766C94.329 151.259 93.3602 149.994 92.1224 148.971C90.8846 147.895 89.3776 147.088 87.6016 146.549C85.8255 146.011 83.888 145.742 81.7891 145.742C79.421 145.742 77.026 146.065 74.6042 146.711C72.2361 147.357 69.9488 148.299 67.7422 149.536C65.5356 150.72 63.4905 152.227 61.6068 154.057C59.7231 155.887 58.1623 157.959 56.9245 160.273C56.2786 161.511 55.9557 162.722 55.9557 163.906C55.9557 165.144 56.4401 166.274 57.4089 167.297C58.3776 168.266 59.9653 168.75 62.1719 168.75C65.401 168.75 68.1997 166.812 70.5677 162.938C71.5365 161.323 72.2092 160.031 72.5859 159.062C72.9627 158.04 73.2049 157.26 73.3125 156.721C73.474 156.183 73.5816 155.833 73.6354 155.672C73.6892 155.51 73.9045 155.43 74.2812 155.43C74.8194 155.43 75.0885 155.672 75.0885 156.156V156.398C75.0885 156.452 75.0078 156.694 74.8464 157.125C74.7387 157.556 74.5503 158.121 74.2812 158.82C74.066 159.52 73.7431 160.327 73.3125 161.242C72.9358 162.103 72.4783 162.964 71.9401 163.826C70.5946 165.978 69.1146 167.62 67.5 168.75C65.8854 169.88 64.1363 170.445 62.2526 170.445C60.8533 170.445 59.6424 170.257 58.6198 169.88C57.651 169.45 56.8438 168.911 56.1979 168.266C55.5521 167.62 55.0677 166.92 54.7448 166.167C54.4757 165.359 54.3411 164.552 54.3411 163.745C54.3411 162.292 54.7179 160.865 55.4714 159.466C56.8168 156.99 58.4314 154.811 60.3151 152.927C62.2526 150.99 64.3247 149.375 66.5312 148.083C68.7378 146.792 71.079 145.823 73.5547 145.177C76.0842 144.477 78.6406 144.128 81.224 144.128C83.3229 144.128 85.3412 144.397 87.2787 144.935C89.27 145.419 91.0191 146.2 92.526 147.276C94.0868 148.352 95.3247 149.752 96.2396 151.474C97.2083 153.196 97.6927 155.295 97.6927 157.771C97.6927 159.708 97.3429 161.592 96.6432 163.422C95.9974 165.252 95.1363 167.001 94.0599 168.669C92.9835 170.284 91.7457 171.791 90.3464 173.19C89.0009 174.589 87.6285 175.8 86.2292 176.823C83.9688 178.491 81.224 180.348 77.9948 182.393C74.8194 184.385 71.375 186.537 67.6615 188.852C64.0017 191.166 60.2344 193.615 56.3594 196.198C52.4844 198.727 48.7439 201.365 45.138 204.109C41.5321 206.8 38.1684 209.572 35.0469 212.424C31.9253 215.277 29.3151 218.156 27.2161 221.062C26.947 221.439 26.678 221.789 26.4089 222.112C26.1398 222.435 26.0052 222.704 26.0052 222.919C25.9514 223.027 25.9514 223.108 26.0052 223.161C26.059 223.323 26.355 223.404 26.8932 223.404C27.6467 223.404 28.8307 223.135 30.4453 222.596C32.0599 222.004 33.8898 221.385 35.9349 220.74C38.0339 220.094 40.2135 219.502 42.474 218.964C44.7344 218.372 46.8602 218.076 48.8516 218.076C51.5425 218.076 53.9644 218.425 56.1172 219.125C58.3238 219.825 60.342 220.578 62.1719 221.385C64.0017 222.193 65.6432 222.946 67.0964 223.646C68.5495 224.345 69.895 224.695 71.1328 224.695C71.9939 224.695 72.8012 224.48 73.5547 224.049C74.362 223.673 75.1424 222.973 75.8958 221.951C76.0573 221.789 76.2726 221.708 76.5417 221.708C77.0799 221.708 77.349 221.951 77.349 222.435C77.349 222.596 77.2951 222.785 77.1875 223C76.2726 224.13 75.3038 224.964 74.2812 225.503C73.2587 226.041 72.0208 226.31 70.5677 226.31Z" fill="#D5CBBE"/>
<path d="M144.31 32.4L116.108 115H112.096L85.192 37.946L58.406 115H54.276L26.074 32.4H30.322L56.4 109.218L83.304 32.4H87.198L113.984 109.336L140.298 32.4H144.31ZM183.465 111.342V115H127.651V32.4H181.813V36.058H131.663V71.222H176.503V74.88H131.663V111.342H183.465ZM159.027 32.4H190.887C199.461 32.4 207.053 34.17 213.661 37.71C220.347 41.25 225.5 46.1667 229.119 52.46C232.816 58.6747 234.665 65.7547 234.665 73.7C234.665 81.6453 232.816 88.7647 229.119 95.058C225.5 101.273 220.347 106.15 213.661 109.69C207.053 113.23 199.461 115 190.887 115H159.027V32.4ZM190.651 111.342C198.675 111.342 205.676 109.729 211.655 106.504C217.712 103.279 222.393 98.834 225.697 93.17C229.001 87.4273 230.653 80.9373 230.653 73.7C230.653 66.4627 229.001 60.012 225.697 54.348C222.393 48.6053 217.712 44.1213 211.655 40.896C205.676 37.6707 198.675 36.058 190.651 36.058H163.039V111.342H190.651Z" fill="#D5CBBE"/>
<rect x="5" y="5" width="249" height="249" stroke="#E0D6C9" stroke-width="10"/>
</svg>
