<svg xmlns="http://www.w3.org/2000/svg" fill="none" viewBox="0 8 310 83">
<path d="M245.722 49.48C250.205 50.1907 253.594 51.776 255.89 54.236C258.186 56.6413 259.334 59.8667 259.334 63.912C259.334 68.832 257.585 72.5767 254.086 75.146C250.587 77.7153 245.367 79 238.424 79H213.496V21.6H236.784C242.852 21.6 247.608 22.8573 251.052 25.372C254.496 27.8867 256.218 31.4947 256.218 36.196C256.218 39.64 255.289 42.4827 253.43 44.724C251.571 46.9653 249.002 48.5507 245.722 49.48ZM216.284 24.06V48.66H236.866C242.169 48.66 246.269 47.6213 249.166 45.544C252.063 43.412 253.512 40.3507 253.512 36.36C253.512 32.3693 252.063 29.3353 249.166 27.258C246.269 25.126 242.169 24.06 236.866 24.06H216.284ZM238.588 76.54C244.547 76.54 249.029 75.5013 252.036 73.424C255.043 71.3467 256.546 68.1487 256.546 63.83C256.546 59.4567 255.043 56.2313 252.036 54.154C249.029 52.0767 244.547 51.038 238.588 51.038H216.284V76.54H238.588ZM297.382 76.458V79H258.596V21.6H296.234V24.142H261.384V48.578H292.544V51.12H261.384V76.458H297.382Z" fill="#CCC2B5"/>
<rect x="2.5" y="10.5" width="305" height="78" stroke="#CCC2B5" stroke-width="5"/>
<path d="M92.69 21.6L73.092 79H70.304L51.608 25.454L32.994 79H30.124L10.526 21.6H13.478L31.6 74.982L50.296 21.6H53.002L71.616 75.064L89.902 21.6H92.69ZM119.899 76.458V79H81.1133V21.6H118.751V24.142H83.9013V48.578H115.061V51.12H83.9013V76.458H119.899ZM102.917 21.6H125.057C131.016 21.6 136.291 22.83 140.883 25.29C145.53 27.75 149.11 31.1667 151.625 35.54C154.194 39.8587 155.479 44.7787 155.479 50.3C155.479 55.8213 154.194 60.7687 151.625 65.142C149.11 69.4607 145.53 72.85 140.883 75.31C136.291 77.77 131.016 79 125.057 79H102.917V21.6ZM124.893 76.458C130.469 76.458 135.334 75.3373 139.489 73.096C143.698 70.8547 146.951 67.766 149.247 63.83C151.543 59.8393 152.691 55.3293 152.691 50.3C152.691 45.2707 151.543 40.788 149.247 36.852C146.951 32.8613 143.698 29.7453 139.489 27.504C135.334 25.2627 130.469 24.142 124.893 24.142H105.705V76.458H124.893Z" fill="#CCC2B5"/>
<path d="M185.777 79.3223C184.833 79.2467 183.833 78.9635 182.775 78.4727C181.756 77.9818 180.623 77.4531 179.377 76.8867C178.131 76.3203 176.771 75.8105 175.299 75.3574C173.864 74.9043 172.24 74.6777 170.428 74.6777C169.106 74.6777 167.69 74.8665 166.18 75.2441C164.707 75.6217 163.272 76.056 161.875 76.5469C160.516 77 159.232 77.4154 158.023 77.793C156.853 78.1706 155.909 78.3594 155.191 78.3594C154.738 78.3594 154.342 78.2461 154.002 78.0195C153.662 77.8307 153.492 77.5098 153.492 77.0566C153.492 76.6413 153.605 76.2448 153.832 75.8672C154.096 75.4518 154.304 75.1497 154.455 74.9609C156.003 72.9219 157.872 70.9017 160.063 68.9004C162.253 66.8991 164.613 64.9355 167.143 63.0098C169.71 61.084 172.354 59.2337 175.072 57.459C177.791 55.6465 180.434 53.9284 183.002 52.3047C185.57 50.681 187.986 49.1517 190.252 47.7168C192.518 46.2441 194.462 44.9036 196.086 43.6953C198.503 41.8828 200.372 39.8815 201.693 37.6914C203.015 35.4635 203.676 33.2923 203.676 31.1777C203.676 29.8939 203.43 28.7422 202.939 27.7227C202.449 26.6654 201.769 25.778 200.9 25.0605C200.032 24.3053 198.975 23.7389 197.729 23.3613C196.482 22.9837 195.123 22.7949 193.65 22.7949C191.989 22.7949 190.309 23.0215 188.609 23.4746C186.948 23.9277 185.343 24.5885 183.795 25.457C182.247 26.2878 180.812 27.3451 179.49 28.6289C178.169 29.9128 177.074 31.3665 176.205 32.9902C175.752 33.8587 175.525 34.7083 175.525 35.5391C175.525 36.4076 175.865 37.2005 176.545 37.918C177.225 38.5977 178.339 38.9375 179.887 38.9375C182.152 38.9375 184.116 37.5781 185.777 34.8594C186.457 33.7266 186.929 32.8203 187.193 32.1406C187.458 31.4232 187.628 30.8756 187.703 30.498C187.816 30.1204 187.892 29.875 187.93 29.7617C187.967 29.6484 188.118 29.5918 188.383 29.5918C188.76 29.5918 188.949 29.7617 188.949 30.1016V30.2715C188.949 30.3092 188.893 30.4792 188.779 30.7812C188.704 31.0833 188.572 31.4798 188.383 31.9707C188.232 32.4616 188.005 33.028 187.703 33.6699C187.439 34.2741 187.118 34.8783 186.74 35.4824C185.796 36.9928 184.758 38.1445 183.625 38.9375C182.492 39.7305 181.265 40.127 179.943 40.127C178.962 40.127 178.112 39.9948 177.395 39.7305C176.715 39.4284 176.148 39.0508 175.695 38.5977C175.242 38.1445 174.902 37.6536 174.676 37.125C174.487 36.5586 174.393 35.9922 174.393 35.4258C174.393 34.4062 174.657 33.4056 175.186 32.4238C176.13 30.6868 177.262 29.1575 178.584 27.8359C179.943 26.4766 181.397 25.3437 182.945 24.4375C184.493 23.5312 186.136 22.8516 187.873 22.3984C189.648 21.9075 191.441 21.6621 193.254 21.6621C194.727 21.6621 196.143 21.8509 197.502 22.2285C198.899 22.5684 200.126 23.1159 201.184 23.8711C202.279 24.6263 203.147 25.6081 203.789 26.8164C204.469 28.0247 204.809 29.4974 204.809 31.2344C204.809 32.5937 204.563 33.9154 204.072 35.1992C203.619 36.4831 203.015 37.7103 202.26 38.8809C201.505 40.0137 200.636 41.071 199.654 42.0527C198.71 43.0345 197.747 43.8841 196.766 44.6016C195.18 45.7721 193.254 47.0749 190.988 48.5098C188.76 49.9069 186.344 51.4173 183.738 53.041C181.171 54.6647 178.527 56.3828 175.809 58.1953C173.09 59.9701 170.465 61.8203 167.936 63.7461C165.406 65.6341 163.046 67.5788 160.855 69.5801C158.665 71.5814 156.834 73.6016 155.361 75.6406C155.173 75.9049 154.984 76.1504 154.795 76.377C154.606 76.6035 154.512 76.7923 154.512 76.9434C154.474 77.0189 154.474 77.0755 154.512 77.1133C154.549 77.2266 154.757 77.2832 155.135 77.2832C155.663 77.2832 156.494 77.0944 157.627 76.7168C158.76 76.3014 160.044 75.8672 161.479 75.4141C162.951 74.9609 164.48 74.5456 166.066 74.168C167.652 73.7526 169.144 73.5449 170.541 73.5449C172.429 73.5449 174.128 73.7904 175.639 74.2812C177.187 74.7721 178.603 75.3008 179.887 75.8672C181.171 76.4336 182.322 76.9622 183.342 77.4531C184.361 77.944 185.305 78.1895 186.174 78.1895C186.778 78.1895 187.344 78.0384 187.873 77.7363C188.439 77.472 188.987 76.9811 189.516 76.2637C189.629 76.1504 189.78 76.0937 189.969 76.0937C190.346 76.0937 190.535 76.2637 190.535 76.6035C190.535 76.7168 190.497 76.849 190.422 77C189.78 77.793 189.1 78.3783 188.383 78.7559C187.665 79.1335 186.797 79.3223 185.777 79.3223Z" fill="#CCC2B5"/>
</svg>