<svg xmlns="http://www.w3.org/2000/svg" fill="none" viewBox="0 9 239 239">
<path d="M150.478 183.52C156.929 184.543 161.806 186.824 165.11 190.364C168.414 193.825 170.066 198.467 170.066 204.288C170.066 211.368 167.549 216.757 162.514 220.454C157.479 224.151 149.967 226 139.976 226H104.104V143.4H137.616C146.348 143.4 153.192 145.209 158.148 148.828C163.104 152.447 165.582 157.639 165.582 164.404C165.582 169.36 164.245 173.451 161.57 176.676C158.895 179.901 155.198 182.183 150.478 183.52ZM108.116 146.94V182.34H137.734C145.365 182.34 151.265 180.845 155.434 177.856C159.603 174.788 161.688 170.383 161.688 164.64C161.688 158.897 159.603 154.531 155.434 151.542C151.265 148.474 145.365 146.94 137.734 146.94H108.116ZM140.212 222.46C148.787 222.46 155.237 220.965 159.564 217.976C163.891 214.987 166.054 210.385 166.054 204.17C166.054 197.877 163.891 193.235 159.564 190.246C155.237 187.257 148.787 185.762 140.212 185.762H108.116V222.46H140.212ZM224.818 222.342V226H169.004V143.4H223.166V147.058H173.016V182.222H217.856V185.88H173.016V222.342H224.818Z" fill="#CCC2B5"/>
<path d="M60.5677 225.31C59.2222 225.202 57.796 224.799 56.2891 224.099C54.8359 223.399 53.2214 222.646 51.4453 221.839C49.6693 221.031 47.7318 220.305 45.6328 219.659C43.5877 219.013 41.2734 218.69 38.6901 218.69C36.8064 218.69 34.7882 218.959 32.6354 219.497C30.5365 220.036 28.4913 220.655 26.5 221.354C24.5625 222 22.7326 222.592 21.0104 223.13C19.342 223.668 17.9965 223.938 16.974 223.938C16.3281 223.938 15.763 223.776 15.2786 223.453C14.7943 223.184 14.5521 222.727 14.5521 222.081C14.5521 221.489 14.7135 220.924 15.0365 220.385C15.4132 219.793 15.7092 219.363 15.9245 219.094C18.1311 216.188 20.7951 213.308 23.9167 210.456C27.0382 207.603 30.4019 204.805 34.0078 202.06C37.6675 199.315 41.4349 196.678 45.3099 194.148C49.1849 191.565 52.9523 189.116 56.612 186.802C60.2717 184.488 63.7161 182.308 66.9453 180.263C70.1745 178.164 72.9462 176.253 75.2604 174.531C78.7049 171.948 81.3689 169.095 83.2526 165.974C85.1363 162.799 86.0781 159.704 86.0781 156.69C86.0781 154.86 85.7283 153.219 85.0287 151.766C84.329 150.259 83.3602 148.994 82.1224 147.971C80.8846 146.895 79.3776 146.088 77.6016 145.549C75.8255 145.011 73.888 144.742 71.7891 144.742C69.421 144.742 67.026 145.065 64.6042 145.711C62.2361 146.357 59.9488 147.299 57.7422 148.536C55.5356 149.72 53.4905 151.227 51.6068 153.057C49.7231 154.887 48.1623 156.959 46.9245 159.273C46.2786 160.511 45.9557 161.722 45.9557 162.906C45.9557 164.144 46.4401 165.274 47.4089 166.297C48.3776 167.266 49.9653 167.75 52.1719 167.75C55.401 167.75 58.1997 165.812 60.5677 161.938C61.5365 160.323 62.2092 159.031 62.5859 158.062C62.9627 157.04 63.2049 156.26 63.3125 155.721C63.474 155.183 63.5816 154.833 63.6354 154.672C63.6892 154.51 63.9045 154.43 64.2812 154.43C64.8194 154.43 65.0885 154.672 65.0885 155.156V155.398C65.0885 155.452 65.0078 155.694 64.8464 156.125C64.7387 156.556 64.5503 157.121 64.2812 157.82C64.066 158.52 63.7431 159.327 63.3125 160.242C62.9358 161.103 62.4783 161.964 61.9401 162.826C60.5946 164.978 59.1146 166.62 57.5 167.75C55.8854 168.88 54.1363 169.445 52.2526 169.445C50.8533 169.445 49.6424 169.257 48.6198 168.88C47.651 168.45 46.8438 167.911 46.1979 167.266C45.5521 166.62 45.0677 165.92 44.7448 165.167C44.4757 164.359 44.3411 163.552 44.3411 162.745C44.3411 161.292 44.7179 159.865 45.4714 158.466C46.8168 155.99 48.4314 153.811 50.3151 151.927C52.2526 149.99 54.3247 148.375 56.5312 147.083C58.7378 145.792 61.079 144.823 63.5547 144.177C66.0842 143.477 68.6406 143.128 71.224 143.128C73.3229 143.128 75.3412 143.397 77.2787 143.935C79.27 144.419 81.0191 145.2 82.526 146.276C84.0868 147.352 85.3247 148.752 86.2396 150.474C87.2083 152.196 87.6927 154.295 87.6927 156.771C87.6927 158.708 87.3429 160.592 86.6432 162.422C85.9974 164.252 85.1363 166.001 84.0599 167.669C82.9835 169.284 81.7457 170.791 80.3464 172.19C79.0009 173.589 77.6285 174.8 76.2292 175.823C73.9688 177.491 71.224 179.348 67.9948 181.393C64.8194 183.385 61.375 185.537 57.6615 187.852C54.0017 190.166 50.2344 192.615 46.3594 195.198C42.4844 197.727 38.7439 200.365 35.138 203.109C31.5321 205.8 28.1684 208.572 25.0469 211.424C21.9253 214.277 19.3151 217.156 17.2161 220.062C16.947 220.439 16.678 220.789 16.4089 221.112C16.1398 221.435 16.0052 221.704 16.0052 221.919C15.9514 222.027 15.9514 222.108 16.0052 222.161C16.059 222.323 16.355 222.404 16.8932 222.404C17.6467 222.404 18.8307 222.135 20.4453 221.596C22.0599 221.004 23.8898 220.385 25.9349 219.74C28.0339 219.094 30.2135 218.502 32.474 217.964C34.7344 217.372 36.8602 217.076 38.8516 217.076C41.5425 217.076 43.9644 217.425 46.1172 218.125C48.3238 218.825 50.342 219.578 52.1719 220.385C54.0017 221.193 55.6432 221.946 57.0964 222.646C58.5495 223.345 59.895 223.695 61.1328 223.695C61.9939 223.695 62.8012 223.48 63.5547 223.049C64.362 222.673 65.1424 221.973 65.8958 220.951C66.0573 220.789 66.2726 220.708 66.5417 220.708C67.0799 220.708 67.349 220.951 67.349 221.435C67.349 221.596 67.2951 221.785 67.1875 222C66.2726 223.13 65.3038 223.964 64.2812 224.503C63.2587 225.041 62.0208 225.31 60.5677 225.31Z" fill="#CCC2B5"/>
<path d="M134.31 31.4L106.108 114H102.096L75.192 36.946L48.406 114H44.276L16.074 31.4H20.322L46.4 108.218L73.304 31.4H77.198L103.984 108.336L130.298 31.4H134.31ZM173.465 110.342V114H117.651V31.4H171.813V35.058H121.663V70.222H166.503V73.88H121.663V110.342H173.465ZM149.027 31.4H180.887C189.461 31.4 197.053 33.17 203.661 36.71C210.347 40.25 215.5 45.1667 219.119 51.46C222.816 57.6747 224.665 64.7547 224.665 72.7C224.665 80.6453 222.816 87.7647 219.119 94.058C215.5 100.273 210.347 105.15 203.661 108.69C197.053 112.23 189.461 114 180.887 114H149.027V31.4ZM180.651 110.342C188.675 110.342 195.676 108.729 201.655 105.504C207.712 102.279 212.393 97.834 215.697 92.17C219.001 86.4273 220.653 79.9373 220.653 72.7C220.653 65.4627 219.001 59.012 215.697 53.348C212.393 47.6053 207.712 43.1213 201.655 39.896C195.676 36.6707 188.675 35.058 180.651 35.058H153.039V110.342H180.651Z" fill="#CCC2B5"/>
<rect x="2.5" y="11.5" width="234" height="234" stroke="#CCC2B5" stroke-width="5"/>
</svg>